# xmcd CD database file
#
# Track frame offsets:
#	150
#	12937
#	27910
#	45167
#	62720
#	79287
#	96987
#	109062
#	125947
#	142350
#	155690
#	187447
#
# Disc length: 4440 seconds
#
# Revision: 2
# Processed by: cddbd v1.4PL0 Copyright (c) Steve Scherf et al.
# Submitted via: Feurio! 1.66.5ß - http://www.feurio.com
#
DISCID=b211560c
DTITLE=Rosanne Cash - Rules Of Travel
DYEAR=2003
DGENRE=Country
TTITLE0=Beautiful Pain (featuring Sheryl Crow)
TTITLE1=44 Stories
TTITLE2=I'll Change For You (featuring Steve Earle)
TTITLE3=Rules Of Travel
TTITLE4=September When It Comes (featuring Johnny Cash)
TTITLE5=Hope Against Hope
TTITLE6=Will You Remeber Me?
TTITLE7=Three Steps Down (featuring Teddy Thompson)
TTITLE8=Closer Than I Appear
TTITLE9=Western Wall
TTITLE10=Last Stop Before Home
TTITLE11=(Data Track)
EXTD=(c)2003 Capitol Records USA\r\nupc 724358258127\r\nProduced by John 
EXTD=Leventhal
EXTT0=
EXTT1=
EXTT2=
EXTT3=
EXTT4=
EXTT5=
EXTT6=
EXTT7=
EXTT8=
EXTT9=
EXTT10=
EXTT11=
PLAYORDER=
